<svg width="6" height="6" viewBox="0 0 6 6" fill="none" xmlns="http://www.w3.org/2000/svg">
<path d="M4.93533 1.30937C5.23044 1.7735 5.37542 2.31728 5.35053 2.86672C5.32563 3.41616 5.13206 3.94458 4.79618 4.38012C4.4603 4.81565 3.99842 5.13715 3.47335 5.30086C2.94828 5.46457 2.38553 5.46255 1.86164 5.29508C1.33776 5.12761 0.878173 4.80282 0.545428 4.36488C0.212683 3.92695 0.0228999 3.39715 0.00194414 2.84754C-0.0190117 2.29794 0.129862 1.75522 0.428294 1.29322C0.726725 0.831223 1.16024 0.472372 1.66985 0.265494C2.24187 -0.0259737 2.90583 -0.0798176 3.51734 0.115665C4.12885 0.311147 4.63845 0.740145 4.93533 1.30937Z" fill="#263238"/>
</svg>
