<svg width="9" height="9" viewBox="0 0 9 9" fill="none" xmlns="http://www.w3.org/2000/svg">
<path d="M8.0746 4.01506C8.01032 5.09349 7.53957 6.10745 6.75724 6.85251C5.97492 7.59758 4.93922 8.01836 3.85893 8.02999C3.33788 8.03426 2.82143 7.9321 2.34125 7.72976C1.86107 7.52742 1.42726 7.22916 1.0664 6.85327C0.705547 6.47738 0.425244 6.03175 0.242663 5.54371C0.0600816 5.05568 -0.0209294 4.5355 0.00459505 4.01506C0.0657663 2.93551 0.535549 1.91972 1.31854 1.17401C2.10154 0.4283 3.13902 0.00859752 4.22026 0.000128502C4.74132 -0.00414088 5.25777 0.0980171 5.73795 0.300358C6.21813 0.502699 6.65193 0.800953 7.01279 1.17685C7.37365 1.55274 7.65395 1.99837 7.83653 2.4864C8.01912 2.97444 8.10013 3.49461 8.0746 4.01506Z" fill="#263238"/>
</svg>
