<svg width="9" height="9" viewBox="0 0 9 9" fill="none" xmlns="http://www.w3.org/2000/svg">
<path d="M8.06193 4.0152C8.00075 5.09475 7.53097 6.11054 6.74798 6.85625C5.96498 7.60196 4.9275 8.02166 3.84626 8.03013C3.32577 8.0345 2.80989 7.9323 2.33039 7.72982C1.85089 7.52733 1.41791 7.22885 1.0581 6.85274C0.698287 6.47663 0.419274 6.03087 0.238215 5.54287C0.0571562 5.05488 -0.02212 4.53498 0.00529319 4.0152C0.0631721 2.93683 0.530123 1.92112 1.31095 1.17511C2.09178 0.429097 3.1277 0.00893871 4.20759 0.00027079C4.72919 -0.00594511 5.24652 0.0949125 5.7276 0.296579C6.20868 0.498246 6.64329 0.796437 7.00455 1.17274C7.3658 1.54905 7.64603 1.99545 7.8279 2.48436C8.00977 2.97327 8.08942 3.49429 8.06193 4.0152Z" fill="#263238"/>
</svg>
