<svg width="6" height="6" viewBox="0 0 6 6" fill="none" xmlns="http://www.w3.org/2000/svg">
<path d="M2.87693e-05 2.97105C0.00254094 3.55544 0.169468 4.12595 0.47974 4.61057C0.790012 5.09519 1.22971 5.47218 1.74336 5.69398C2.25701 5.91579 2.82157 5.97245 3.36579 5.85682C3.91 5.74119 4.40947 5.45848 4.80116 5.04431C5.19285 4.63015 5.4592 4.10313 5.5666 3.52977C5.67399 2.95641 5.6176 2.3624 5.40456 1.82274C5.19153 1.28307 4.83139 0.821942 4.3696 0.497537C3.9078 0.173132 3.36504 5.98286e-06 2.80985 1.55039e-10C2.43979 -3.98765e-06 2.07338 0.0769143 1.73164 0.226387C1.38991 0.37586 1.07957 0.594932 0.818489 0.870996C0.557405 1.14706 0.350708 1.47468 0.21025 1.83507C0.0697929 2.19546 -0.00164573 2.58152 2.87693e-05 2.97105Z" fill="#E6E6E6"/>
</svg>
