<svg width="36" height="42" viewBox="0 0 36 42" fill="none" xmlns="http://www.w3.org/2000/svg">
<path d="M10.1444 4.32274C11.108 6.99936 12.1251 9.87672 13.1957 12.647C14.2664 15.4173 15.2835 18.2679 16.3675 21.0784L19.6464 29.483L20.4761 31.5841L20.9044 32.628L21.1051 33.1499C21.1051 33.2436 21.1051 33.2436 21.1051 33.2302C20.8606 32.8855 20.5401 32.6016 20.1683 32.4005C19.6389 32.0889 19.042 31.9099 18.4285 31.8785C17.9188 31.8626 17.4117 31.9586 16.943 32.1596C16.3274 32.4406 16.3274 32.5611 16.3408 32.5477C16.452 32.4585 16.551 32.355 16.6352 32.2399C17.376 31.2672 18.0172 30.2225 18.549 29.1216C19.178 27.8904 19.7802 26.5788 20.3825 25.2539C21.5602 22.5773 22.6442 19.807 23.7282 17.0099C24.8123 14.2128 25.8428 11.389 26.8465 8.5384L29.8978 0L35.0503 1.33831C34.0332 7.441 32.7217 13.3831 31.1425 19.4322C30.3796 22.4434 29.483 25.4279 28.4658 28.4391C27.9573 29.9514 27.3952 31.4503 26.7528 32.9893C26.0832 34.6597 25.2588 36.2638 24.2903 37.7805C23.9344 38.291 23.5407 38.7741 23.1126 39.2259C22.4292 39.964 21.5997 40.5519 20.6769 40.9523C19.858 41.3038 18.9711 41.4684 18.0806 41.4341C17.083 41.3969 16.1113 41.1068 15.2567 40.5909C14.2485 39.9618 13.4117 39.0928 12.821 38.0615C12.6202 37.7136 12.4463 37.3656 12.3258 37.1113L12.0715 36.6028L11.563 35.5589L10.5459 33.4845C9.20756 30.7008 7.86925 27.8904 6.70493 25.0665C5.5406 22.2427 4.30936 19.3787 3.15841 16.5014C2.00747 13.624 0.976966 10.7466 0 7.64174L10.1444 4.32274Z" fill="#E58A7B"/>
</svg>
