<svg width="5" height="2" viewBox="0 0 5 2" fill="none" xmlns="http://www.w3.org/2000/svg">
<path d="M4.48135 1.56657C4.41715 1.59946 4.34605 1.61661 4.27392 1.61661C4.20178 1.61661 4.13068 1.59946 4.06648 1.56657C3.56583 1.24292 2.99607 1.04159 2.40323 0.978816C1.81039 0.916045 1.21113 0.993606 0.653806 1.20523C0.59947 1.2324 0.540237 1.24841 0.479615 1.25232C0.418992 1.25624 0.358185 1.24797 0.300808 1.22801C0.243432 1.20806 0.190636 1.17682 0.145527 1.13613C0.100418 1.09544 0.0639016 1.04612 0.0381537 0.991099C-0.0115214 0.872002 -0.01273 0.738217 0.0347638 0.618233C0.0822576 0.498248 0.174705 0.401549 0.292436 0.348716C0.992118 0.0629538 1.75042 -0.0497638 2.50297 0.0201324C3.25552 0.0900285 3.98011 0.340469 4.61519 0.750203C4.66648 0.785084 4.71034 0.829811 4.74421 0.881776C4.77808 0.93374 4.80129 0.991907 4.8125 1.05291C4.8237 1.11392 4.82267 1.17655 4.80948 1.23716C4.79629 1.29777 4.77118 1.35515 4.73563 1.40598C4.66796 1.48271 4.57972 1.53844 4.48135 1.56657Z" fill="#263238"/>
</svg>
