<svg width="9" height="9" viewBox="0 0 9 9" fill="none" xmlns="http://www.w3.org/2000/svg">
<path d="M8.06191 4.01506C8.0009 5.09232 7.533 6.10619 6.75284 6.85156C5.97269 7.59693 4.93854 8.01815 3.85962 8.02999C3.33802 8.03621 2.82069 7.93537 2.3396 7.73371C1.85852 7.53204 1.42393 7.23383 1.06268 6.85752C0.701427 6.48122 0.421197 6.03481 0.239326 5.5459C0.0574547 5.057 -0.0221905 4.53598 0.00530129 4.01506C0.0664725 2.93552 0.536255 1.91972 1.31925 1.17401C2.10224 0.428306 3.13973 0.00860377 4.22097 0.000134753C4.74145 -0.00424027 5.25732 0.0979604 5.73682 0.300446C6.21632 0.502931 6.6493 0.801419 7.00911 1.17753C7.36892 1.55364 7.64795 1.99942 7.82901 2.48741C8.01007 2.97541 8.08932 3.49529 8.06191 4.01506Z" fill="#263238"/>
</svg>
