<svg width="69" height="69" viewBox="0 0 69 69" fill="none" xmlns="http://www.w3.org/2000/svg">
<path d="M68.6089 34.2889C68.263 41.6113 65.659 48.6471 61.1546 54.4305C57.8201 58.7989 53.529 62.3453 48.6108 64.7974C43.6926 67.2496 38.2779 68.5423 32.7824 68.5764C28.3414 68.6103 23.9406 67.7346 19.8509 66.0032C15.7612 64.2719 12.0693 61.7216 9.00252 58.5094C5.93577 55.2972 3.55914 51.4911 2.01901 47.3257C0.478885 43.1602 -0.192122 38.7235 0.0473247 34.2889C0.517983 25.0867 4.48632 16.4119 11.1408 10.0385C17.7953 3.66515 26.6332 0.0747021 35.8471 0.00141344C40.2914 -0.0400302 44.697 0.830314 48.7917 2.55867C52.8863 4.28703 56.5831 6.83668 59.6535 10.0501C62.7239 13.2635 65.1028 17.0724 66.6431 21.2414C68.1834 25.4105 68.8525 29.8511 68.6089 34.2889Z" fill="white"/>
</svg>
