<svg width="6" height="3" viewBox="0 0 6 3" fill="none" xmlns="http://www.w3.org/2000/svg">
<path d="M1.11443 2.89635C0.814041 2.9049 0.513568 2.88249 0.217769 2.82946C0.176455 2.82327 0.137465 2.80642 0.104617 2.78061C0.0717684 2.7548 0.046192 2.7209 0.0304069 2.68222C0.0104205 2.64282 0 2.59926 0 2.55508C0 2.5109 0.0104205 2.46734 0.0304069 2.42794C0.110705 2.33426 1.91743 0.152814 3.63046 0.00560011C4.1154 -0.0321005 4.59581 0.121642 4.96877 0.433869C5.49071 0.888894 5.46395 1.29037 5.33012 1.54465C4.99555 2.4547 2.68026 2.89635 1.11443 2.89635ZM0.766481 2.40119C2.26539 2.48149 4.66096 1.98629 4.96877 1.33051C4.96877 1.33051 5.07583 1.11642 4.72787 0.82199C4.58941 0.701586 4.42766 0.610915 4.25269 0.55566C4.07772 0.500405 3.89326 0.48172 3.71076 0.500768C2.55682 0.82283 1.52928 1.49077 0.766481 2.41458V2.40119Z" fill="#263238"/>
</svg>
