<svg width="9" height="9" viewBox="0 0 9 9" fill="none" xmlns="http://www.w3.org/2000/svg">
<path d="M8.07397 4.01506C8.00969 5.09349 7.53892 6.10744 6.75659 6.85251C5.97427 7.59758 4.93857 8.01836 3.85828 8.02999C3.33778 8.03234 2.82223 7.92886 2.34294 7.72586C1.86365 7.52285 1.43061 7.22455 1.07014 6.84906C0.709674 6.47357 0.429296 6.02872 0.246014 5.54155C0.0627316 5.05437 -0.0196388 4.53503 0.00394362 4.01506C0.0682278 2.93662 0.539 1.92267 1.32132 1.1776C2.10364 0.432534 3.13935 0.011761 4.21963 0.000128501C4.74069 -0.00414088 5.25712 0.0980171 5.7373 0.300358C6.21748 0.502699 6.65128 0.800953 7.01214 1.17685C7.373 1.55274 7.65332 1.99837 7.8359 2.4864C8.01849 2.97444 8.0995 3.49461 8.07397 4.01506Z" fill="#263238"/>
</svg>
