<svg width="3" height="5" viewBox="0 0 3 5" fill="none" xmlns="http://www.w3.org/2000/svg">
<path d="M2.74499 4.53459C2.71018 4.54584 2.6727 4.54584 2.6379 4.53459C1.63417 3.9725 -0.252827 1.76428 0.0282176 0.640099C0.0702344 0.461897 0.170908 0.302995 0.314111 0.188917C0.457315 0.0748394 0.634731 0.0122076 0.817816 0.0110911C0.997419 -0.0129163 1.1801 0.00215587 1.35334 0.0552821C1.52657 0.108408 1.68628 0.198349 1.82155 0.318917C2.93235 1.26912 2.99927 4.18663 2.99927 4.33385C3.00574 4.37784 2.99742 4.42272 2.97562 4.46148C2.95382 4.50023 2.91978 4.53067 2.87882 4.54798C2.83388 4.55711 2.78723 4.55243 2.74499 4.53459ZM0.951655 0.452715H0.857963C0.550152 0.452715 0.510017 0.626727 0.496634 0.693642C0.336037 1.34941 1.52711 3.02228 2.51745 3.81189C2.51295 2.68133 2.1627 1.57924 1.51372 0.653495C1.35841 0.51803 1.15764 0.446285 0.951655 0.452715Z" fill="#407BFF"/>
</svg>
