<svg width="27" height="26" viewBox="0 0 27 26" fill="none" xmlns="http://www.w3.org/2000/svg">
<path d="M17.6259 6.85059L7.93649 0.15904C7.7722 0.0393863 7.56972 -0.0158125 7.36743 0.00392238C7.16515 0.0236573 6.97715 0.116976 6.83908 0.266128L0.415191 7.17181C0.258646 7.3503 0.141885 7.56004 0.0726699 7.78714C0.00345479 8.01424 -0.0166267 8.2535 0.0137554 8.48897C0.0441375 8.72443 0.124288 8.95072 0.248883 9.15281C0.373477 9.3549 0.539667 9.52814 0.736393 9.66105C4.14908 11.9496 5.91565 12.873 10.1849 15.8307C12.8615 17.6508 18.0407 21.6925 21.6542 24.2085C25.2676 26.7245 27.9576 23.2717 26.6728 21.9066C20.9181 15.7637 19.6601 11.9094 18.7099 8.41643C18.5449 7.78278 18.1609 7.22802 17.6259 6.85059Z" fill="#407BFF"/>
</svg>
