<svg width="6" height="6" viewBox="0 0 6 6" fill="none" xmlns="http://www.w3.org/2000/svg">
<path d="M0 2.95769C0 3.54267 0.164793 4.1145 0.473542 4.60089C0.78229 5.08728 1.22113 5.46633 1.73456 5.69019C2.24799 5.91404 2.81294 5.97262 3.358 5.8585C3.90305 5.74437 4.40372 5.46269 4.79669 5.04905C5.18965 4.63541 5.45726 4.10844 5.56567 3.53471C5.67409 2.96098 5.61845 2.36628 5.40578 1.82584C5.19311 1.2854 4.83296 0.823469 4.37089 0.498476C3.90881 0.173484 3.36556 0 2.80982 0C2.06461 0 1.34993 0.311629 0.82298 0.866299C0.296034 1.42097 0 2.17327 0 2.95769Z" fill="#E6E6E6"/>
</svg>
