<svg width="33" height="71" viewBox="0 0 33 71" fill="none" xmlns="http://www.w3.org/2000/svg">
<path d="M21.7877 4.80453C20.5163 7.58821 19.178 10.6529 18.0136 13.624C16.8493 16.595 15.6582 19.6598 14.6277 22.7111C12.5237 28.7246 10.9212 34.9019 9.83659 41.1798L9.54216 43.1471C9.51407 43.4846 9.54579 43.8244 9.63584 44.1508C9.95167 45.26 10.4491 46.3092 11.108 47.2557C12.8266 49.7058 14.8203 51.951 17.0501 53.9473C19.4009 56.1339 21.8669 58.1934 24.4375 60.1169C27.0071 62.0976 29.7105 64.0247 32.3737 65.8448L29.8711 70.5423C23.5117 67.7714 17.4755 64.3113 11.8708 60.2239C8.88067 58.0432 6.1821 55.4886 3.84095 52.6223C2.45324 50.9162 1.3711 48.9828 0.642393 46.9077C0.218704 45.6115 0.00191184 44.2566 0 42.8928C0 42.5716 0 42.1032 0 41.8757V41.2199L0.133839 39.8816C0.901079 32.9091 2.3672 26.0313 4.51011 19.3519C5.55399 16.0597 6.66478 12.7808 7.93618 9.58228C9.20757 6.38372 10.5191 3.25209 12.1385 0L21.7877 4.80453Z" fill="#E58A7B"/>
</svg>
