<svg width="19" height="19" viewBox="0 0 19 19" fill="none" xmlns="http://www.w3.org/2000/svg">
<path d="M18.2374 9.10087C18.1501 11.0479 17.4577 12.9192 16.2567 14.4541C15.368 15.6144 14.226 16.5563 12.9179 17.2081C11.6098 17.8598 10.1701 18.2041 8.70863 18.2148C7.29267 18.2234 5.89615 17.8851 4.64105 17.2296C3.38595 16.574 2.31044 15.6211 1.50851 14.4541C0.446614 12.8771 -0.0789775 11 0.0096133 9.10087C0.139016 6.65766 1.19552 4.35582 2.96367 2.66476C4.73182 0.973699 7.07846 0.0207888 9.52502 0.000360225C10.7053 -0.010414 11.8753 0.220609 12.9629 0.679195C14.0505 1.13778 15.0327 1.81422 15.8489 2.66682C16.6652 3.51942 17.2982 4.53014 17.7089 5.63669C18.1197 6.74323 18.2996 7.92218 18.2374 9.10087Z" fill="#407BFF"/>
</svg>
