<svg width="7" height="4" viewBox="0 0 7 4" fill="none" xmlns="http://www.w3.org/2000/svg">
<path d="M0.227925 3.0606C0.196887 3.06065 0.166177 3.05436 0.137664 3.04209C0.109151 3.02983 0.0834178 3.01185 0.0621066 2.98929C0.0407953 2.96672 0.0243221 2.94004 0.0137088 2.91087C0.00309558 2.8817 -0.00143145 2.85067 0.000394344 2.81969C0.00382497 2.7546 0.0321446 2.69331 0.0794644 2.64848C0.126784 2.60365 0.189494 2.57871 0.254677 2.5788C1.27824 2.58589 2.29041 2.36357 3.21678 1.92817C4.14316 1.49277 4.9602 0.855366 5.60792 0.0627741C5.65425 0.0222996 5.71368 0 5.77521 0C5.83673 0 5.89616 0.0222996 5.94249 0.0627741C5.98583 0.10768 6.01005 0.167654 6.01005 0.230063C6.01005 0.292472 5.98583 0.352445 5.94249 0.397352C5.2492 1.23971 4.37608 1.91615 3.38722 2.377C2.39835 2.83786 1.31885 3.07144 0.227925 3.0606Z" fill="#263238"/>
</svg>
