<svg width="5" height="4" viewBox="0 0 5 4" fill="none" xmlns="http://www.w3.org/2000/svg">
<path d="M4.20231 3.8867H4.09522C2.75692 3.6458 0.0802986 2.10674 0 0.955796C0 0.688134 0.120458 0.313428 0.762846 0.0992986C0.979859 0.0220089 1.21022 -0.0107222 1.44017 0.00307491C1.67012 0.016872 1.89494 0.0769107 2.10116 0.179594C3.54653 0.888898 4.30936 3.45842 4.34951 3.57887C4.35892 3.61935 4.35772 3.66157 4.34599 3.70144C4.33427 3.7413 4.31244 3.77747 4.28261 3.8064C4.26262 3.83919 4.2351 3.86671 4.20231 3.8867ZM1.03048 0.500775H0.896686C0.48181 0.647989 0.481813 0.821968 0.481813 0.8755C0.481813 1.57142 2.42235 2.84283 3.77404 3.27109C3.46274 2.19621 2.80382 1.25488 1.90042 0.594467C1.6317 0.457792 1.32214 0.424449 1.03048 0.500775Z" fill="#407BFF"/>
</svg>
