<svg width="4" height="5" viewBox="0 0 4 5" fill="none" xmlns="http://www.w3.org/2000/svg">
<path d="M0.217708 4.12222C0.147107 4.12122 0.0797642 4.09236 0.0303456 4.04193C0.010432 4.0049 0 3.96352 0 3.92148C0 3.87944 0.010432 3.83806 0.0303456 3.80104C0.0303456 3.68059 0.900245 0.77646 2.26532 0.120688C2.43968 0.0411581 2.62909 0 2.82073 0C3.01237 0 3.20176 0.0411581 3.37612 0.120688C3.56406 0.180039 3.72675 0.300542 3.83831 0.463026C3.94986 0.625509 4.00389 0.820614 3.99175 1.01733C3.89807 2.22181 1.44896 3.88132 0.324775 4.16237L0.217708 4.12222ZM2.81403 0.468621C2.68386 0.472675 2.55607 0.504632 2.43931 0.562312C1.60956 0.963805 0.927011 2.52962 0.592433 3.47982C1.77015 2.98464 3.38951 1.67311 3.44304 0.937038C3.44304 0.81659 3.44303 0.669392 3.13521 0.535561C3.03509 0.481701 2.92645 0.44546 2.81403 0.428473V0.468621Z" fill="#263238"/>
</svg>
