<svg width="7" height="3" viewBox="0 0 7 3" fill="none" xmlns="http://www.w3.org/2000/svg">
<path d="M3.19154 2.14806C2.37259 2.43364 1.48107 2.43364 0.662114 2.14806C0.476111 2.04733 0.31853 1.90133 0.203908 1.72355C0.089286 1.54577 0.0213359 1.34197 0.00635556 1.13097C-0.0105393 0.998628 0.00638259 0.864152 0.0555293 0.740115C0.104676 0.616078 0.184433 0.506486 0.287389 0.421629C1.35804 -0.541954 5.73431 0.421649 6.22949 0.609012C6.2766 0.621151 6.31817 0.648957 6.34736 0.687878C6.37655 0.726799 6.39162 0.77452 6.39008 0.823147C6.39209 0.873352 6.3792 0.923015 6.35299 0.965889C6.32679 1.00876 6.28848 1.04292 6.24288 1.06403C5.25742 1.50895 4.23682 1.87153 3.19154 2.14806ZM1.01009 0.555468C0.857051 0.586242 0.714317 0.655301 0.595215 0.756207C0.55258 0.788099 0.519866 0.831468 0.500911 0.881224C0.481956 0.93098 0.477519 0.985105 0.488127 1.03728C0.496871 1.17775 0.540669 1.31378 0.615473 1.433C0.690277 1.55222 0.793717 1.65081 0.916396 1.71979C1.6257 2.09452 3.27183 1.80011 5.39974 0.903442C3.96642 0.541908 2.48247 0.424264 1.01009 0.555468Z" fill="#407BFF"/>
</svg>
