<svg width="19" height="221" viewBox="0 0 19 221" fill="none" xmlns="http://www.w3.org/2000/svg">
<path opacity="0.2" d="M18.2953 220.901C18.2534 220.902 18.2128 220.887 18.1808 220.86C18.1489 220.833 18.1277 220.796 18.1213 220.754C18.0142 219.817 8.04382 127.073 6.17019 98.968C4.13596 68.4813 0.040707 0.856526 0.000557654 0.173988C-0.0012979 0.1518 0.00149033 0.129473 0.00872605 0.108416C0.0159618 0.0873595 0.027523 0.0680265 0.0426249 0.0516661C0.0577268 0.0353056 0.0760433 0.0222711 0.0964546 0.0133767C0.116866 0.00448229 0.138924 -7.64844e-05 0.161189 9.70677e-07C0.205104 -0.000129133 0.247444 0.0163658 0.279713 0.0461524C0.311981 0.075939 0.331757 0.116807 0.335135 0.160592C0.335135 0.84313 4.47053 68.4144 6.50477 98.9546C8.3784 127.059 18.3488 219.737 18.4425 220.741C18.4463 220.763 18.4454 220.786 18.4399 220.807C18.4344 220.829 18.4244 220.85 18.4105 220.867C18.3966 220.885 18.3792 220.899 18.3594 220.91C18.3395 220.92 18.3177 220.927 18.2953 220.928V220.901Z" fill="black"/>
</svg>
