<svg width="9" height="9" viewBox="0 0 9 9" fill="none" xmlns="http://www.w3.org/2000/svg">
<path d="M8.07531 4.01506C8.01102 5.09349 7.54027 6.10744 6.75795 6.85251C5.97563 7.59758 4.93993 8.01836 3.85964 8.02999C3.33804 8.0362 2.82071 7.93537 2.33962 7.7337C1.85854 7.53203 1.42391 7.23382 1.06266 6.85752C0.701407 6.48121 0.421197 6.03481 0.239326 5.5459C0.0574547 5.05699 -0.0221905 4.53597 0.00530129 4.01506C0.0664725 2.93551 0.536276 1.91972 1.31927 1.17401C2.10226 0.4283 3.13973 0.00859752 4.22097 0.000128501C4.74202 -0.00414088 5.25848 0.0980171 5.73866 0.300358C6.21884 0.502699 6.65264 0.800953 7.0135 1.17685C7.37436 1.55274 7.65466 1.99837 7.83724 2.4864C8.01982 2.97444 8.10083 3.49461 8.07531 4.01506Z" fill="#263238"/>
</svg>
