<svg width="29" height="19" viewBox="0 0 29 19" fill="none" xmlns="http://www.w3.org/2000/svg">
<path d="M16.305 3.24761L4.95614 0.0356324C4.76052 -0.023632 4.54992 -0.00857642 4.36469 0.077863C4.17946 0.164302 4.03265 0.316051 3.95241 0.504049L0.124845 9.10937C0.0349606 9.32977 -0.00723138 9.56671 0.001012 9.80459C0.00925538 10.0425 0.0677657 10.2759 0.172691 10.4895C0.277617 10.7032 0.426574 10.8922 0.609782 11.0441C0.79299 11.1961 1.00628 11.3075 1.23564 11.3711C5.25057 12.415 7.17774 12.7094 12.1696 14.1414C15.2477 14.9979 19.6374 16.5906 23.8798 17.795C28.1223 18.9995 29.5409 14.8641 27.8948 13.9808C20.4538 10.0462 19.8649 7.28927 17.8307 4.34499C17.4664 3.81179 16.9264 3.42343 16.305 3.24761Z" fill="#407BFF"/>
</svg>
