<svg width="93" height="31" viewBox="0 0 93 31" fill="none" xmlns="http://www.w3.org/2000/svg">
<path d="M90.7741 30.4457H0.130386C0.0908841 30.4559 0.0494442 30.4559 0.00994266 30.4457C-0.00331422 30.4067 -0.00331422 30.3643 0.00994266 30.3253L1.34825 0.159774C1.34817 0.139262 1.35237 0.118937 1.36059 0.100145C1.36881 0.0813517 1.38086 0.0645046 1.39598 0.0506441C1.4111 0.0367835 1.42896 0.0262443 1.4484 0.0196858C1.46783 0.0131273 1.48842 0.0106736 1.50884 0.0125385H92.1526C92.1692 0.00428379 92.1875 0 92.2061 0C92.2247 0 92.243 0.00428379 92.2597 0.0125385C92.2691 0.0288144 92.274 0.0472885 92.274 0.0660823C92.274 0.0848761 92.2691 0.10335 92.2597 0.119626L90.9481 30.352C90.932 30.3835 90.9068 30.4092 90.8757 30.426C90.8446 30.4427 90.8092 30.4496 90.7741 30.4457ZM0.290976 30.1245H90.6135L91.9518 0.280217H1.62929L0.290976 30.1245Z" fill="white"/>
</svg>
