<svg width="9" height="9" viewBox="0 0 9 9" fill="none" xmlns="http://www.w3.org/2000/svg">
<path d="M8.07395 4.0152C8.01278 5.09475 7.543 6.11054 6.76 6.85625C5.97701 7.60196 4.93953 8.02166 3.85828 8.03013C3.33778 8.03248 2.82221 7.92901 2.34292 7.726C1.86363 7.52299 1.43062 7.22469 1.07014 6.8492C0.709674 6.47371 0.429277 6.02886 0.245994 5.54169C0.0627119 5.05451 -0.0196381 4.53518 0.00394433 4.0152C0.0682286 2.93677 0.53898 1.92281 1.3213 1.17774C2.10362 0.432676 3.13933 0.0119033 4.21961 0.000270841C4.74122 -0.00594506 5.25855 0.0948922 5.73963 0.296559C6.22071 0.498226 6.65532 0.796437 7.01657 1.17274C7.37783 1.54905 7.65806 1.99545 7.83993 2.48436C8.0218 2.97327 8.10144 3.49429 8.07395 4.0152Z" fill="#263238"/>
</svg>
