<svg width="6" height="3" viewBox="0 0 6 3" fill="none" xmlns="http://www.w3.org/2000/svg">
<path d="M2.35511 2.55291C1.67591 2.60666 0.99921 2.42213 0.44134 2.03099C0.268972 1.87533 0.14005 1.67749 0.0673087 1.45692C-0.00543227 1.23635 -0.0194845 1.00064 0.0264667 0.77298C0.034893 0.630769 0.0816284 0.493474 0.161735 0.375669C0.241842 0.257865 0.352332 0.16394 0.481487 0.103825C1.60567 -0.471648 4.75068 1.52241 5.11203 1.74992C5.15175 1.77438 5.1824 1.81116 5.19931 1.85464C5.21622 1.89812 5.21848 1.94597 5.20572 1.99085C5.19427 2.03754 5.17101 2.08051 5.13821 2.11566C5.1054 2.15081 5.06413 2.17694 5.01834 2.19159C4.14589 2.40599 3.25315 2.5271 2.35511 2.55291ZM1.0168 0.465154C0.915436 0.442623 0.810344 0.442623 0.708977 0.465154C0.657679 0.491189 0.615155 0.531689 0.586614 0.581635C0.558074 0.631582 0.544773 0.688775 0.548386 0.746188C0.512716 0.901921 0.518677 1.06431 0.565663 1.21701C0.612648 1.36972 0.699017 1.50738 0.816065 1.61612C1.33801 2.08453 2.64955 2.13804 4.37597 1.80346C3.34797 1.1264 2.19032 0.670637 0.976655 0.465154H1.0168Z" fill="#407BFF"/>
</svg>
