<svg width="9" height="9" viewBox="0 0 9 9" fill="none" xmlns="http://www.w3.org/2000/svg">
<path d="M8.07531 4.01506C8.01102 5.09349 7.54027 6.10747 6.75795 6.85253C5.97563 7.5976 4.93991 8.01836 3.85962 8.02999C3.33802 8.0362 2.82069 7.93537 2.3396 7.7337C1.85852 7.53203 1.42393 7.23382 1.06268 6.85752C0.701427 6.48121 0.421197 6.03481 0.239326 5.5459C0.0574547 5.05699 -0.0221905 4.53597 0.00530129 4.01506C0.0633254 2.9344 0.532143 1.91677 1.31582 1.17041C2.09949 0.424057 3.13876 0.00539972 4.22097 0.000128477C4.74202 -0.0041409 5.25846 0.0980374 5.73864 0.300378C6.21882 0.502719 6.65264 0.800974 7.0135 1.17687C7.37436 1.55276 7.65466 1.99837 7.83724 2.4864C8.01982 2.97444 8.10083 3.49461 8.07531 4.01506Z" fill="#263238"/>
</svg>
