<svg width="6" height="6" viewBox="0 0 6 6" fill="none" xmlns="http://www.w3.org/2000/svg">
<path d="M2.86493e-05 2.95765C-0.00248841 3.54583 0.160904 4.12157 0.469516 4.61192C0.778127 5.10226 1.21806 5.48515 1.73359 5.71208C2.24912 5.939 2.81703 5.99976 3.36539 5.88664C3.91374 5.77351 4.41786 5.49163 4.81387 5.07666C5.20989 4.66169 5.47998 4.13231 5.58992 3.55562C5.69987 2.97893 5.64472 2.38086 5.43146 1.83719C5.21821 1.29353 4.85645 0.828721 4.39201 0.501662C3.92758 0.174603 3.38136 5.9675e-06 2.82257 1.53137e-10C2.07618 -7.9706e-06 1.36018 0.311194 0.831215 0.865482C0.302249 1.41977 0.00339076 2.172 2.86493e-05 2.95765Z" fill="#E6E6E6"/>
</svg>
