<svg width="38" height="19" viewBox="0 0 38 19" fill="none" xmlns="http://www.w3.org/2000/svg">
<path d="M21.4047 3.16426L32.1112 0.0326209C32.3022 -0.0212298 32.506 -0.00811371 32.6885 0.0697871C32.8711 0.147688 33.0216 0.285697 33.1149 0.46089L37.1298 8.49075C37.2231 8.69448 37.2707 8.91608 37.2695 9.14014C37.2682 9.36419 37.218 9.58529 37.1224 9.78793C37.0268 9.99058 36.8881 10.1699 36.716 10.3134C36.544 10.4569 36.3426 10.5611 36.1261 10.6187C32.2316 11.6893 29.6219 12.3451 24.7505 13.7637C21.3913 14.7407 17.9652 16.3332 14.6462 17.3905C12.3443 18.1266 6.93755 18.1534 4.14048 18.1534C0.00510493 18.1534 -0.918345 13.7905 0.861607 13.5897C5.34495 13.0945 5.94718 13.322 8.42305 12.0774C12.4742 10.3066 16.1458 7.77101 19.2366 4.60962C19.8194 3.94535 20.5673 3.44677 21.4047 3.16426Z" fill="#263238"/>
</svg>
