<svg width="7" height="4" viewBox="0 0 7 4" fill="none" xmlns="http://www.w3.org/2000/svg">
<path d="M4.80961 3.5469C3.29732 3.5469 1.19618 1.60635 0.0452325 0.415255C0.0158207 0.374302 0 0.325138 0 0.274718C0 0.224298 0.0158207 0.175174 0.0452325 0.134221C0.0716543 0.0910996 0.109221 0.0558748 0.153974 0.0323207C0.198727 0.00876659 0.24899 -0.00225223 0.299494 0.000382267C0.834818 0.000382267 5.47875 0.696303 6.13453 2.00785C6.20399 2.12539 6.24063 2.25943 6.24063 2.39597C6.24063 2.5325 6.20399 2.66651 6.13453 2.78405C6.03619 2.98828 5.88759 3.16422 5.70266 3.29531C5.51774 3.4264 5.30255 3.50834 5.07727 3.5335L4.80961 3.5469ZM0.928501 0.602597C2.61477 2.23534 4.1003 3.1454 4.94343 3.03833C5.09109 3.01903 5.23176 2.96379 5.3531 2.87745C5.47443 2.79112 5.57273 2.67634 5.63936 2.54316C5.6693 2.49742 5.68524 2.44394 5.68524 2.38927C5.68524 2.3346 5.6693 2.28108 5.63936 2.23534C5.2914 1.51265 2.81552 0.897025 0.928501 0.602597Z" fill="#263238"/>
</svg>
