<svg width="47" height="178" viewBox="0 0 47 178" fill="none" xmlns="http://www.w3.org/2000/svg">
<path d="M45.0004 174.154C38.6568 172.307 31.6173 169.939 27.3615 167.463C27.241 167.382 27.1072 167.342 26.9868 167.275V138.555H39.8212C40.7954 138.498 41.7108 138.07 42.3803 137.36C43.0497 136.649 43.4225 135.71 43.4225 134.734C43.4225 133.758 43.0497 132.819 42.3803 132.109C41.7108 131.399 40.7954 130.971 39.8212 130.913H27.0537V0H19.345V130.913H6.59092C6.07013 130.883 5.54854 130.959 5.05818 131.137C4.56782 131.315 4.11903 131.591 3.73939 131.949C3.35975 132.307 3.05727 132.739 2.85052 133.218C2.64377 133.696 2.53713 134.213 2.53713 134.734C2.53713 135.256 2.64377 135.772 2.85052 136.251C3.05727 136.73 3.35975 137.162 3.73939 137.52C4.11903 137.878 4.56782 138.154 5.05818 138.332C5.54854 138.51 6.07013 138.586 6.59092 138.555H19.345V167.235C19.2246 167.235 19.1041 167.342 18.9837 167.423C14.6609 169.939 7.67495 172.307 1.33136 174.114C0.902842 174.244 0.534885 174.522 0.294098 174.9C0.0533101 175.277 -0.0443847 175.728 0.0187002 176.172C0.081785 176.615 0.301478 177.021 0.638007 177.316C0.974537 177.611 1.40565 177.776 1.8533 177.781H44.4785C44.9062 177.752 45.3111 177.577 45.6254 177.285C45.9397 176.994 46.1445 176.603 46.2056 176.179C46.2667 175.754 46.1804 175.322 45.961 174.953C45.7417 174.585 45.4026 174.303 45.0004 174.154Z" fill="#E0E0E0"/>
</svg>
