<svg width="6" height="6" viewBox="0 0 6 6" fill="none" xmlns="http://www.w3.org/2000/svg">
<path d="M0 2.95765C0 3.54262 0.164793 4.11446 0.473542 4.60085C0.78229 5.08723 1.22113 5.46633 1.73456 5.69019C2.24799 5.91404 2.81294 5.97262 3.358 5.8585C3.90305 5.74437 4.40372 5.46269 4.79669 5.04905C5.18965 4.63541 5.45726 4.1084 5.56567 3.53467C5.67409 2.96094 5.61845 2.36624 5.40578 1.8258C5.19311 1.28536 4.83296 0.823428 4.37089 0.498436C3.90881 0.173443 3.36556 0 2.80982 0C2.06461 0 1.34993 0.311589 0.82298 0.866258C0.296034 1.42093 0 2.17323 0 2.95765Z" fill="#E6E6E6"/>
</svg>
