<svg width="5" height="3" viewBox="0 0 5 3" fill="none" xmlns="http://www.w3.org/2000/svg">
<path d="M0.32792 2.45063C0.2566 2.43337 0.191656 2.39625 0.140578 2.34357C0.0960661 2.29996 0.0606946 2.24789 0.0365536 2.19044C0.0124125 2.13299 0 2.07131 0 2.00899C0 1.94667 0.0124125 1.88498 0.0365536 1.82753C0.0606946 1.77008 0.0960661 1.71803 0.140578 1.67441C0.653493 1.09911 1.29236 0.650022 2.00734 0.362171C2.72233 0.07432 3.4941 -0.0445284 4.26256 0.0149018C4.32412 0.024402 4.38311 0.0464437 4.43581 0.0796567C4.4885 0.11287 4.53382 0.156552 4.56895 0.207992C4.60408 0.259433 4.62826 0.317541 4.64002 0.378712C4.65178 0.439883 4.65083 0.502815 4.63728 0.563614C4.6086 0.687533 4.53567 0.796713 4.43217 0.870643C4.32867 0.944574 4.20174 0.978161 4.07521 0.965101C3.46712 0.926789 2.85828 1.02738 2.29483 1.25925C1.73138 1.49113 1.22812 1.84819 0.823129 2.30341C0.762137 2.37115 0.683622 2.42074 0.596252 2.44671C0.508882 2.47269 0.416012 2.47404 0.32792 2.45063Z" fill="#263238"/>
</svg>
