<svg width="6" height="6" viewBox="0 0 6 6" fill="none" xmlns="http://www.w3.org/2000/svg">
<path d="M2.87693e-05 2.97105C0.00254094 3.55544 0.169468 4.12595 0.47974 4.61057C0.790012 5.09519 1.22972 5.47222 1.74337 5.69403C2.25701 5.91583 2.82157 5.97249 3.36579 5.85686C3.91 5.74123 4.40947 5.45848 4.80117 5.04431C5.19286 4.63015 5.45921 4.10313 5.5666 3.52977C5.674 2.95641 5.61761 2.3624 5.40457 1.82274C5.19154 1.28307 4.83139 0.821942 4.3696 0.497537C3.9078 0.173132 3.36505 5.98286e-06 2.80986 1.54963e-10C2.4398 -3.98765e-06 2.07338 0.0769552 1.73164 0.226428C1.38991 0.375901 1.07958 0.594932 0.818498 0.870996C0.557414 1.14706 0.350708 1.47473 0.21025 1.83511C0.0697929 2.1955 -0.00164573 2.58152 2.87693e-05 2.97105Z" fill="#E6E6E6"/>
</svg>
