<svg width="28" height="8" viewBox="0 0 28 8" fill="none" xmlns="http://www.w3.org/2000/svg">
<path opacity="0.6" d="M0.0248883 4.47928C-0.064379 3.86821 0.0885072 3.24644 0.450993 2.74646C0.813478 2.24648 1.3569 1.90782 1.96543 1.80266C6.67628 1.02644 17.3828 -0.552763 22.7628 0.196691C26.7777 0.758781 27.8216 3.08744 27.9956 5.00122C28.0228 5.33632 27.978 5.67337 27.8641 5.98972C27.7503 6.30606 27.57 6.59436 27.3355 6.83525C27.1009 7.07613 26.8175 7.26402 26.5043 7.38627C26.1911 7.50852 25.8554 7.5623 25.5197 7.544L2.25986 6.50012C1.71151 6.47244 1.18954 6.25618 0.782282 5.88794C0.375023 5.5197 0.107474 5.02209 0.0248883 4.47928Z" fill="black"/>
</svg>
