<svg width="6" height="6" viewBox="0 0 6 6" fill="none" xmlns="http://www.w3.org/2000/svg">
<path d="M2.87693e-05 2.97108C3.44384e-05 3.55927 0.165895 4.13423 0.476607 4.6231C0.787318 5.11197 1.22889 5.49274 1.74539 5.71721C2.26188 5.94169 2.83006 5.99974 3.37792 5.88401C3.92579 5.76828 4.42868 5.48402 4.82291 5.06717C5.21714 4.65032 5.48496 4.11967 5.59243 3.54246C5.69989 2.96525 5.64219 2.36746 5.4266 1.82481C5.21102 1.28216 4.84727 0.819066 4.38143 0.494218C3.9156 0.16937 3.36864 -0.00261933 2.80986 3.01565e-05C2.4398 2.61687e-05 2.07338 0.0769853 1.73164 0.226458C1.38991 0.375931 1.07958 0.594962 0.818498 0.871026C0.557414 1.14709 0.350708 1.47476 0.21025 1.83514C0.0697929 2.19553 -0.00164573 2.58155 2.87693e-05 2.97108Z" fill="#E6E6E6"/>
</svg>
