<svg width="30" height="12" viewBox="0 0 30 12" fill="none" xmlns="http://www.w3.org/2000/svg">
<path d="M16.229 2.6235e-06H27.551C27.7475 0.000599147 27.9373 0.070899 28.0868 0.198331C28.2363 0.325764 28.3358 0.502089 28.3674 0.69595L29.8262 9.64925C29.8569 9.87386 29.839 10.1025 29.7735 10.3195C29.708 10.5366 29.5966 10.737 29.4468 10.9071C29.2969 11.0772 29.1122 11.2131 28.9052 11.3055C28.6982 11.3979 28.4737 11.4447 28.247 11.4426C24.299 11.3757 22.3986 11.1348 17.4201 11.1348C14.3553 11.1348 8.05187 11.456 3.79604 11.456C-0.459784 11.456 -0.740811 7.28044 1.01238 6.89233C8.88164 5.19268 11.933 2.87737 14.5561 0.62901C15.0186 0.222758 15.6134 -0.000883549 16.229 2.6235e-06Z" fill="#263238"/>
</svg>
