<svg width="9" height="9" viewBox="0 0 9 9" fill="none" xmlns="http://www.w3.org/2000/svg">
<path d="M8.0746 4.0152C8.01343 5.09475 7.54363 6.11054 6.76063 6.85625C5.97764 7.60196 4.94016 8.02166 3.85891 8.03013C3.33786 8.0344 2.82143 7.93224 2.34125 7.7299C1.86107 7.52756 1.42726 7.22931 1.0664 6.85341C0.705547 6.47752 0.425244 6.03191 0.242663 5.54387C0.0600816 5.05584 -0.0209294 4.53565 0.00459506 4.0152C0.0657663 2.93566 0.535549 1.91988 1.31854 1.17417C2.10154 0.428463 3.13902 0.00873981 4.22026 0.00027079C4.74187 -0.00594511 5.2592 0.0949125 5.74028 0.296579C6.22136 0.498246 6.65597 0.796437 7.01722 1.17274C7.37848 1.54905 7.65869 1.99545 7.84056 2.48436C8.02243 2.97327 8.10209 3.49429 8.0746 4.0152Z" fill="#263238"/>
</svg>
