<svg width="6" height="3" viewBox="0 0 6 3" fill="none" xmlns="http://www.w3.org/2000/svg">
<path d="M3.93576 2.50298C2.5948 2.33914 1.30631 1.88223 0.161714 1.16467C0.114474 1.14823 0.0735379 1.11751 0.0445586 1.07674C0.0155793 1.03597 0 0.987199 0 0.93718C0 0.887161 0.0155793 0.838351 0.0445586 0.797582C0.0735379 0.756813 0.114474 0.726089 0.161714 0.709649C0.57659 0.575818 4.17666 -0.53499 5.22054 0.321528C5.33788 0.419047 5.42703 0.546154 5.47879 0.689677C5.53055 0.833201 5.54304 0.987952 5.51495 1.13792C5.49636 1.37885 5.41654 1.61104 5.28303 1.81246C5.14953 2.01389 4.96678 2.17786 4.75213 2.28885C4.5015 2.42563 4.22126 2.49915 3.93576 2.50298ZM0.92456 1.03083C2.59745 1.88735 3.93575 2.19517 4.57814 1.87397C4.71802 1.79647 4.83574 1.68446 4.92007 1.54858C5.00441 1.41271 5.05256 1.25752 5.05993 1.09777C5.05993 0.883641 5.05994 0.789933 4.93949 0.736401C4.3774 0.281375 2.36993 0.629338 0.897788 1.03083H0.92456Z" fill="#263238"/>
</svg>
