<svg width="48" height="47" viewBox="0 0 48 47" fill="none" xmlns="http://www.w3.org/2000/svg">
<path d="M20.2709 26.9293C27.6851 25.0423 33.132 23.7575 31.1781 29.9271C28.5952 38.1711 25.4903 46.1474 29.6524 46.5087C32.1952 46.7362 43.437 41.9719 42.005 37.1406C40.7604 32.9383 46.0199 31.7873 46.9568 29.6594C50.423 21.9508 40.5061 22.9679 42.2727 18.2838C44.0392 13.5997 34.2428 6.05164 28.8896 9.81229C20.1772 15.8882 5.22826 15.7945 13.0841 5.79736C18.7184 -1.33583 8.66773 0.122917 8.66773 0.122917C8.66773 0.122917 14.7437 3.72298 4.51896 9.29035C-6.29458 15.2324 3.62228 31.1985 20.2709 26.9293Z" fill="#263238"/>
</svg>
