<svg width="30" height="40" viewBox="0 0 30 40" fill="none" xmlns="http://www.w3.org/2000/svg">
<path d="M29.065 14.7067C27.8605 24.6905 27.7267 30.5657 22.3735 35.6781C20.7146 37.3746 18.6192 38.5797 16.3186 39.1603C14.0181 39.7409 11.6018 39.6745 9.33655 38.9684C7.07133 38.2622 5.04529 36.9438 3.48218 35.1587C1.91906 33.3736 0.879674 31.1913 0.47874 28.8527C-1.14061 19.886 1.09437 5.07092 11.1049 1.09614C13.2082 0.1684 15.5214 -0.179871 17.8046 0.0874215C20.0878 0.354714 22.258 1.22783 24.0902 2.61629C25.9223 4.00474 27.3498 5.85798 28.2245 7.98387C29.0992 10.1098 29.3894 12.4309 29.065 14.7067Z" fill="#E58A7B"/>
</svg>
